<?xml version="1.0" ?><svg viewBox="0 0 512 512" xmlns="http://www.w3.org/2000/svg"><defs><style>.cls-1{fill:#f2f2f2;}.cls-2{opacity:0.1;}.cls-3{fill:#3f456b;}.cls-4{opacity:0.5;}.cls-5{fill:#fff;}.cls-6{opacity:0.3;}.cls-7{fill:#e95a6b;}.cls-8{fill:#dae1ea;}.cls-9{opacity:0.2;}.cls-10{fill:#767c93;}</style></defs><title/><g id="Colors"><rect class="cls-1" height="398" transform="translate(-44.51 52.97) rotate(-10.03)" width="347" x="106" y="81"/><g class="cls-2"><rect class="cls-3" height="375.91" transform="translate(-43.52 49.2) rotate(-10.03)" width="308.25" x="104.37" y="84.54"/></g><g class="cls-2"><rect class="cls-3" height="14" transform="translate(-76.93 61.69) rotate(-10.03)" width="347" x="139.45" y="462.06"/></g><g class="cls-4"><rect class="cls-5" height="14" transform="translate(-12.08 44.26) rotate(-10.03)" width="347" x="72.55" y="83.94"/></g><rect class="cls-1" height="398" transform="translate(-40.43 41.38) rotate(-10.03)" width="347" x="42" y="52"/><g class="cls-2"><rect class="cls-3" height="14" transform="translate(-72.86 50.1) rotate(-10.03)" width="347" x="75.45" y="433.06"/></g><g class="cls-4"><rect class="cls-5" height="14" transform="translate(-8.01 32.66) rotate(-10.03)" width="347" x="8.55" y="54.94"/></g><g class="cls-6"><path class="cls-3" d="M89.32,251.5a5,5,0,0,1-.87-9.93l261-46.16a5,5,0,0,1,1.74,9.84L90.19,251.42A5.12,5.12,0,0,1,89.32,251.5Z"/><path class="cls-3" d="M83.39,218a5,5,0,0,1-.86-9.93l261-46.16a5,5,0,0,1,1.74,9.84l-261,46.17A5.24,5.24,0,0,1,83.39,218Z"/><path class="cls-3" d="M77.64,185.52a5,5,0,0,1-.86-9.92l261-46.17a5,5,0,0,1,1.74,9.85l-261,46.16A4.37,4.37,0,0,1,77.64,185.52Z"/><path class="cls-3" d="M72.07,154a5,5,0,0,1-.86-9.92L332.15,97.92a5,5,0,1,1,1.74,9.85L73,153.93A4.43,4.43,0,0,1,72.07,154Z"/><path class="cls-3" d="M66.32,121.51a5,5,0,0,1-.86-9.92L326.4,65.43a5,5,0,1,1,1.75,9.84L67.2,121.44A5.3,5.3,0,0,1,66.32,121.51Z"/></g><g class="cls-6"><path class="cls-3" d="M119.55,433.67a5,5,0,0,1-.87-9.93l261-46.16a5,5,0,0,1,1.74,9.84L120.42,433.59A5.21,5.21,0,0,1,119.55,433.67Z"/><path class="cls-3" d="M113.8,401.17a5,5,0,0,1-.87-9.92l261-46.17a5,5,0,0,1,1.74,9.85L114.67,401.1A5.1,5.1,0,0,1,113.8,401.17Z"/><path class="cls-3" d="M108.05,368.68a5,5,0,0,1-.87-9.93l261-46.16a5,5,0,1,1,1.74,9.84L108.92,368.6A5.12,5.12,0,0,1,108.05,368.68Z"/><path class="cls-3" d="M102.47,337.17a5,5,0,0,1-.86-9.93l261-46.16a5,5,0,1,1,1.74,9.84l-261,46.17A5.33,5.33,0,0,1,102.47,337.17Z"/><path class="cls-3" d="M96.72,304.67a5,5,0,0,1-.86-9.92l261-46.17a5,5,0,0,1,1.74,9.85l-261,46.16A4.37,4.37,0,0,1,96.72,304.67Z"/></g><rect class="cls-7" height="306" rx="23.5" ry="23.5" transform="translate(-22.31 80.21) rotate(-10.03)" width="47" x="422.19" y="14.18"/><rect class="cls-8" height="64" transform="translate(-18.43 79.16) rotate(-10.03)" width="47" x="418.18" y="112.53"/><g class="cls-9"><path class="cls-3" d="M427.4,16.56l52.7,297.87s14.87-3.64,11.38-23.33L447.66,43.44S445.82,18.89,427.4,16.56Z"/></g><g class="cls-6"><rect class="cls-5" height="273" rx="8" ry="8" transform="translate(-22.55 77.64) rotate(-10.03)" width="16" x="422.98" y="30.74"/></g><g class="cls-4"><path class="cls-3" d="M416.62,142.79a5,5,0,0,1-.86-9.92L462,124.68a5,5,0,0,1,1.74,9.85l-46.28,8.19A5.3,5.3,0,0,1,416.62,142.79Z"/></g><g class="cls-4"><path class="cls-3" d="M420.28,163.47a5,5,0,0,1-.86-9.92l46.28-8.19a5,5,0,0,1,1.74,9.85l-46.28,8.18A4.43,4.43,0,0,1,420.28,163.47Z"/></g><path class="cls-10" d="M159.23,224.23c.23,11.77-10,23.12-22.82,25.36s-23.43-5.5-23.66-17.27,10-23.12,22.82-25.35S159,212.46,159.23,224.23Z"/><g class="cls-9"><path class="cls-3" d="M113.87,228.64s4.64,17.86,23.58,8,17.66-23.58,17.66-23.58,12.43,24.41-15.68,34.93S113.87,228.64,113.87,228.64Z"/></g><path class="cls-10" d="M230.71,174.22c.23,11.77-10,23.12-22.82,25.36s-23.43-5.49-23.66-17.26,10-23.13,22.82-25.36S230.48,162.45,230.71,174.22Z"/><g class="cls-9"><path class="cls-3" d="M185.35,178.64s4.64,17.85,23.58,8,17.66-23.57,17.66-23.57S239,187.5,210.91,198,185.35,178.64,185.35,178.64Z"/></g><path class="cls-10" d="M314.11,181c.23,11.77-10,23.12-22.82,25.36s-23.42-5.49-23.66-17.26,10-23.13,22.82-25.36S313.88,169.24,314.11,181Z"/><g class="cls-9"><path class="cls-3" d="M268.75,185.43s4.64,17.85,23.58,8S310,169.89,310,169.89s12.43,24.4-15.68,34.92S268.75,185.43,268.75,185.43Z"/></g><g class="cls-6"><ellipse class="cls-5" cx="131.58" cy="219.71" rx="12.16" ry="9.43" transform="translate(-90.53 92.23) rotate(-29.23)"/></g><g class="cls-6"><ellipse class="cls-5" cx="201.9" cy="168.89" rx="12.16" ry="9.43" transform="translate(-56.76 120.1) rotate(-29.23)"/></g><g class="cls-6"><ellipse class="cls-5" cx="285.13" cy="174.69" rx="12.16" ry="9.43" transform="translate(-49 161.48) rotate(-29.23)"/></g><path class="cls-10" d="M166.52,378c.25,11.77-10,23.13-22.79,25.39s-23.43-5.47-23.68-17.24,10-23.13,22.79-25.38S166.27,366.21,166.52,378Z"/><g class="cls-9"><path class="cls-3" d="M121.17,382.45s4.66,17.85,23.59,8,17.62-23.6,17.62-23.6,12.47,24.39-15.63,34.94S121.17,382.45,121.17,382.45Z"/></g><g class="cls-6"><ellipse class="cls-5" cx="137.7" cy="372.68" rx="12.16" ry="9.43" transform="translate(-164.78 115.08) rotate(-29.3)"/></g><path class="cls-10" d="M260.92,361.76c.32,11.76-9.81,23.19-22.63,25.53S214.82,382,214.5,370.21s9.81-23.2,22.62-25.54S260.59,350,260.92,361.76Z"/><g class="cls-9"><path class="cls-3" d="M215.59,366.52s4.78,17.82,23.65,7.85,17.47-23.71,17.47-23.71,12.62,24.31-15.41,35S215.59,366.52,215.59,366.52Z"/></g><path class="cls-10" d="M350.62,324.08c.32,11.77-9.81,23.2-22.62,25.53s-23.47-5.31-23.8-17.08S314,309.33,326.83,307,350.3,312.31,350.62,324.08Z"/><g class="cls-9"><path class="cls-3" d="M305.29,328.84s4.78,17.82,23.65,7.86S346.41,313,346.41,313,359,337.3,331,348,305.29,328.84,305.29,328.84Z"/></g><g class="cls-6"><ellipse class="cls-5" cx="231.89" cy="355.66" rx="12.16" ry="9.43" transform="translate(-145.64 161.4) rotate(-29.67)"/></g><g class="cls-6"><ellipse class="cls-5" cx="320.6" cy="318.16" rx="12.16" ry="9.43" transform="translate(-115.45 200.4) rotate(-29.67)"/></g></g><g id="Lines"><path class="cls-3" d="M495,172.59a5,5,0,0,1-4.92-4.13L473.37,73.93c-.64-3.63-2.13-6.09-4.55-7.53-5.06-3-13.52-1.24-16.08-.39a5,5,0,0,1-3.17-9.48c1.46-.49,14.51-4.59,24.36,1.27,4.93,2.93,8.14,7.91,9.29,14.39l16.72,94.53a5,5,0,0,1-4.05,5.79A4.43,4.43,0,0,1,495,172.59Z"/><path class="cls-3" d="M468.24,323.2a28.54,28.54,0,0,1-28.05-23.54l-45.12-255a28.5,28.5,0,0,1,56.12-9.93l45.13,255a28.54,28.54,0,0,1-23.1,33h0A28.18,28.18,0,0,1,468.24,323.2Zm-45.11-302a18.55,18.55,0,0,0-18.22,21.72l45.13,255a18.57,18.57,0,0,0,21.44,15h0a18.51,18.51,0,0,0,15-21.44l-45.12-255a18.58,18.58,0,0,0-18.22-15.28Z"/><path class="cls-3" d="M413,122.11a5,5,0,0,1-.86-9.92L458.38,104a5,5,0,0,1,1.74,9.85L413.84,122A5.3,5.3,0,0,1,413,122.11Z"/><path class="cls-3" d="M424.11,185.14a5,5,0,0,1-.86-9.93L469.53,167a5,5,0,0,1,1.74,9.85L425,185.06A5.33,5.33,0,0,1,424.11,185.14Z"/><path class="cls-3" d="M143.32,511.18a5,5,0,0,1-4.92-4.13l-6.65-37.58a5,5,0,0,1,9.85-1.74l5.77,32.66,331.85-58.71L457.39,318.29a5,5,0,0,1,9.85-1.74l22.7,128.31a5,5,0,0,1-4.05,5.79l-341.7,60.46A5.19,5.19,0,0,1,143.32,511.18Z"/><path class="cls-3" d="M359.78,68.71a5,5,0,0,1-.87-9.93l41.71-7.38a5,5,0,1,1,1.74,9.85l-41.7,7.38A5.33,5.33,0,0,1,359.78,68.71Z"/><path class="cls-3" d="M79.32,482.18a5,5,0,0,1-4.92-4.13L5.06,86.14a5,5,0,0,1,4.05-5.79l341.7-60.46A5,5,0,0,1,356.6,24l69.34,391.91a5,5,0,0,1-4.05,5.79L80.19,482.11A5.1,5.1,0,0,1,79.32,482.18ZM15.78,89.32,83.37,471.39l331.85-58.71L347.63,30.61Z"/><path class="cls-3" d="M39.08,123a5,5,0,0,1-4.92-4.14l-.09-.5a5,5,0,0,1,9.86-1.72l.08.5A5,5,0,0,1,40,122.93,5.21,5.21,0,0,1,39.08,123Z"/><path class="cls-3" d="M90.42,416.2a5,5,0,0,1-4.92-4.14l-.17-.95a5,5,0,0,1,9.85-1.72l.17.95a5,5,0,0,1-4.07,5.78A5.1,5.1,0,0,1,90.42,416.2Zm-5.14-29.32a5,5,0,0,1-4.92-4.14l-.16-.95a5,5,0,0,1,9.85-1.72l.17.95a5,5,0,0,1-4.07,5.79A5.1,5.1,0,0,1,85.28,386.88Zm-5.13-29.32a5,5,0,0,1-4.92-4.14l-.16-.95a5,5,0,0,1,9.85-1.72l.16.95A5,5,0,0,1,81,357.49,5.19,5.19,0,0,1,80.15,357.56ZM75,328.24a5,5,0,0,1-4.92-4.14l-.17-1a5,5,0,1,1,9.85-1.71l.17.94a5,5,0,0,1-4.07,5.79A5.07,5.07,0,0,1,75,328.24Zm-5.14-29.32A5,5,0,0,1,65,294.78l-.16-.95a5,5,0,1,1,9.85-1.71l.16.94a5,5,0,0,1-4.06,5.79A5.1,5.1,0,0,1,69.88,298.92ZM64.75,269.6a5,5,0,0,1-4.92-4.14l-.17-.94a5,5,0,1,1,9.86-1.72l.16.94a5,5,0,0,1-4.07,5.79A5.07,5.07,0,0,1,64.75,269.6Zm-5.13-29.32a5,5,0,0,1-4.92-4.14l-.17-.94a5,5,0,1,1,9.85-1.72l.17.94a5,5,0,0,1-4.07,5.79A5.07,5.07,0,0,1,59.62,240.28ZM54.48,211a5,5,0,0,1-4.92-4.13l-.16-1a5,5,0,0,1,9.85-1.73l.16.95a5,5,0,0,1-4.06,5.79A5.1,5.1,0,0,1,54.48,211Zm-5.13-29.31a5,5,0,0,1-4.92-4.14l-.17-.95a5,5,0,0,1,9.85-1.73l.17.95a5,5,0,0,1-4.06,5.79A5.12,5.12,0,0,1,49.35,181.65Zm-5.14-29.32a5,5,0,0,1-4.91-4.14l-.17-.95A5,5,0,1,1,49,145.52l.17.94a5,5,0,0,1-4.07,5.79A5.12,5.12,0,0,1,44.21,152.33Z"/><path class="cls-3" d="M95.47,445.07a5,5,0,0,1-4.92-4.15l-.08-.49a5,5,0,0,1,9.85-1.72l.08.49A5,5,0,0,1,96.34,445,5.12,5.12,0,0,1,95.47,445.07Z"/><path class="cls-3" d="M132.09,255a25.38,25.38,0,0,1-16.24-5.55,22.23,22.23,0,0,1-8.1-17c-.28-14.35,11.56-27.7,27-30.38,8-1.39,15.81.46,21.43,5.09a22.26,22.26,0,0,1,8.09,17c.28,14.35-11.56,27.7-27,30.38A29.59,29.59,0,0,1,132.09,255Zm7.82-43.39a20.83,20.83,0,0,0-3.48.31c-10.31,1.8-18.86,11.11-18.68,20.34a12.19,12.19,0,0,0,4.46,9.47c3.36,2.78,8.22,3.85,13.34,3,10.31-1.79,18.86-11.11,18.68-20.33h0a12.23,12.23,0,0,0-4.45-9.48A15.38,15.38,0,0,0,139.91,211.58Z"/><path class="cls-3" d="M203.57,205a25.38,25.38,0,0,1-16.24-5.55,22.21,22.21,0,0,1-8.1-17c-.28-14.36,11.56-27.71,27-30.39,8-1.39,15.81.47,21.43,5.09a22.27,22.27,0,0,1,8.09,17c.28,14.36-11.56,27.7-27,30.39A30.56,30.56,0,0,1,203.57,205Zm7.82-43.38a20.71,20.71,0,0,0-3.48.3c-10.31,1.8-18.86,11.11-18.68,20.34a12.25,12.25,0,0,0,4.45,9.48c3.37,2.77,8.23,3.85,13.35,3,10.31-1.79,18.86-11.1,18.68-20.33h0a12.25,12.25,0,0,0-4.45-9.48A15.43,15.43,0,0,0,211.39,161.58Z"/><path class="cls-3" d="M287,211.75a25.38,25.38,0,0,1-16.24-5.55,22.21,22.21,0,0,1-8.1-17c-.28-14.36,11.56-27.71,27-30.39,8-1.39,15.81.46,21.43,5.09a22.22,22.22,0,0,1,8.09,17c.28,14.36-11.56,27.7-27,30.38A29.59,29.59,0,0,1,287,211.75Zm7.82-43.38a20.8,20.8,0,0,0-3.48.3c-10.31,1.8-18.86,11.11-18.68,20.34a12.22,12.22,0,0,0,4.46,9.48c3.36,2.77,8.22,3.84,13.35,2.95,10.3-1.79,18.85-11.1,18.67-20.33h0a12.18,12.18,0,0,0-4.45-9.48A15.43,15.43,0,0,0,294.79,168.37Z"/><path class="cls-3" d="M158.34,223.89a5,5,0,0,1-4.92-4.15l-14.51-83.29a5,5,0,0,1,4.07-5.79L301.1,103.12a5,5,0,0,1,5.78,4.07l11.82,67.88a5,5,0,1,1-9.85,1.71l-11-62.95L149.62,139.66,163.27,218a5,5,0,0,1-4.07,5.78A5.1,5.1,0,0,1,158.34,223.89Z"/><path class="cls-3" d="M231.24,179.16a5,5,0,0,1-4.92-4.14l-9-51.72a5,5,0,1,1,9.85-1.72l9,51.72a5,5,0,0,1-4.07,5.79A5.1,5.1,0,0,1,231.24,179.16Z"/><path class="cls-3" d="M139.38,408.75a25.42,25.42,0,0,1-16.21-5.52,22.26,22.26,0,0,1-8.12-17c-.3-14.36,11.53-27.72,26.92-30.42,8-1.4,15.81.44,21.43,5.07a22.16,22.16,0,0,1,8.12,17c.3,14.36-11.52,27.72-26.92,30.42A30,30,0,0,1,139.38,408.75Zm7.83-43.39a20.16,20.16,0,0,0-3.51.31c-10.3,1.81-18.84,11.13-18.65,20.36a12.2,12.2,0,0,0,4.47,9.47c3.36,2.77,8.23,3.84,13.35,2.94,10.3-1.81,18.84-11.13,18.65-20.36h0a12.18,12.18,0,0,0-4.47-9.47A15.34,15.34,0,0,0,147.21,365.36Z"/><path class="cls-3" d="M165.62,377.65a5,5,0,0,1-4.92-4.14l-14.61-83.29a5,5,0,1,1,9.85-1.73l14.61,83.29a5,5,0,0,1-4.06,5.79A5.12,5.12,0,0,1,165.62,377.65Z"/><path class="cls-3" d="M233.79,392.7a25.33,25.33,0,0,1-16.06-5.42,22.24,22.24,0,0,1-8.23-16.94c-.39-14.35,11.35-27.79,26.73-30.58,8-1.46,15.81.34,21.46,4.92a22.21,22.21,0,0,1,8.22,16.94c.4,14.35-11.34,27.79-26.72,30.59A30.29,30.29,0,0,1,233.79,392.7Zm7.85-43.44a20.56,20.56,0,0,0-3.62.33c-10.29,1.88-18.77,11.25-18.52,20.48a12.19,12.19,0,0,0,4.53,9.44c3.38,2.75,8.25,3.79,13.37,2.86,10.29-1.87,18.77-11.25,18.52-20.48h0a12.21,12.21,0,0,0-4.53-9.44A15.33,15.33,0,0,0,241.64,349.26Z"/><path class="cls-3" d="M323.49,355a25.31,25.31,0,0,1-16.06-5.42,22.17,22.17,0,0,1-8.22-16.93c-.4-14.36,11.34-27.79,26.72-30.59,8-1.46,15.81.34,21.46,4.93a22.22,22.22,0,0,1,8.23,16.93c.39,14.36-11.35,27.79-26.73,30.59A30.21,30.21,0,0,1,323.49,355Zm7.86-43.44a19.71,19.71,0,0,0-3.63.34c-10.29,1.87-18.77,11.25-18.52,20.47a12.21,12.21,0,0,0,4.53,9.45c3.38,2.74,8.26,3.78,13.37,2.85,10.29-1.87,18.77-11.25,18.52-20.47h0a12.23,12.23,0,0,0-4.53-9.45A15.38,15.38,0,0,0,331.35,311.58Z"/><path class="cls-3" d="M260,361.43a5,5,0,0,1-4.91-4.11l-15.14-83.19a5,5,0,0,1,4-5.81l94-17.11a5.06,5.06,0,0,1,3.74.81,5,5,0,0,1,2.07,3.22l11.16,61.29a5,5,0,0,1-9.84,1.79L334.78,262l-84.12,15.31,14.25,78.27a5,5,0,0,1-4,5.82A5.69,5.69,0,0,1,260,361.43Z"/></g></svg>