<?xml version="1.0" ?><!DOCTYPE svg  PUBLIC '-//W3C//DTD SVG 1.1//EN'  'http://www.w3.org/Graphics/SVG/1.1/DTD/svg11.dtd'><svg id="Icon_Set" style="enable-background:new 0 0 256 256;" version="1.1" viewBox="0 0 256 256" xml:space="preserve" xmlns="http://www.w3.org/2000/svg" xmlns:xlink="http://www.w3.org/1999/xlink"><style type="text/css">
	.st0{fill:#504774;}
	.st1{fill:#F1C48B;}
	.st2{fill:#FD919F;}
	.st3{fill:#E0667D;}
	.st4{fill:#FFFFFF;}
	.st5{fill:#D5E6F7;}
	.st6{fill:#A0D1F2;}
	.st7{fill:#7BABF3;}
	.st8{fill:#484771;}
	.st9{fill:#D4E7F8;}
</style><g><g><circle class="st1" cx="128" cy="128" r="103.873"/></g><g><rect class="st7" height="112.326" width="122.891" x="66.554" y="57.619"/></g><g><rect class="st4" height="62.596" width="122.891" x="66.554" y="82.484"/></g><g><rect class="st5" height="62.596" width="9.881" x="147.642" y="82.484"/></g><g><rect class="st5" height="62.596" width="9.881" x="179.565" y="82.484"/></g><g><rect class="st5" height="9.103" width="13.175" x="167.404" y="65.244"/></g><g><rect class="st5" height="9.103" width="13.175" x="144.348" y="65.244"/></g><g><rect class="st5" height="9.103" width="13.175" x="121.293" y="65.244"/></g><g><rect class="st5" height="9.103" width="13.175" x="98.237" y="65.244"/></g><g><rect class="st5" height="9.103" width="13.175" x="75.182" y="65.244"/></g><g><rect class="st5" height="9.103" width="13.175" x="167.404" y="153.217"/></g><g><rect class="st5" height="9.103" width="13.175" x="121.293" y="153.217"/></g><g><rect class="st5" height="9.103" width="13.175" x="98.237" y="153.217"/></g><g><rect class="st5" height="9.103" width="13.175" x="75.182" y="153.217"/></g><g><path class="st0" d="M189.445,172.945H66.555c-1.657,0-3-1.343-3-3V57.619c0-1.657,1.343-3,3-3h122.891c1.657,0,3,1.343,3,3    v112.326C192.445,171.603,191.103,172.945,189.445,172.945z M69.555,166.945h116.891V60.619H69.555V166.945z"/></g><g><path class="st0" d="M189.445,148.08H66.555c-1.657,0-3-1.343-3-3V82.484c0-1.657,1.343-3,3-3h122.891c1.657,0,3,1.343,3,3v62.596    C192.445,146.737,191.103,148.08,189.445,148.08z M69.555,142.08h116.891V85.484H69.555V142.08z"/></g><g><path class="st0" d="M180.578,77.348h-13.175c-1.657,0-3-1.343-3-3v-9.104c0-1.657,1.343-3,3-3h13.175c1.657,0,3,1.343,3,3v9.104    C183.578,76.005,182.235,77.348,180.578,77.348z M170.403,71.348h7.175v-3.104h-7.175V71.348z"/></g><g><path class="st0" d="M157.522,77.348h-13.174c-1.657,0-3-1.343-3-3v-9.104c0-1.657,1.343-3,3-3h13.174c1.657,0,3,1.343,3,3v9.104    C160.522,76.005,159.18,77.348,157.522,77.348z M147.349,71.348h7.174v-3.104h-7.174V71.348z"/></g><g><path class="st0" d="M134.468,77.348h-13.175c-1.657,0-3-1.343-3-3v-9.104c0-1.657,1.343-3,3-3h13.175c1.657,0,3,1.343,3,3v9.104    C137.468,76.005,136.125,77.348,134.468,77.348z M124.293,71.348h7.175v-3.104h-7.175V71.348z"/></g><g><path class="st0" d="M111.412,77.348H98.237c-1.657,0-3-1.343-3-3v-9.104c0-1.657,1.343-3,3-3h13.175c1.657,0,3,1.343,3,3v9.104    C114.412,76.005,113.069,77.348,111.412,77.348z M101.237,71.348h7.175v-3.104h-7.175V71.348z"/></g><g><path class="st0" d="M88.356,77.348H75.182c-1.657,0-3-1.343-3-3v-9.104c0-1.657,1.343-3,3-3h13.175c1.657,0,3,1.343,3,3v9.104    C91.356,76.005,90.014,77.348,88.356,77.348z M78.182,71.348h7.175v-3.104h-7.175V71.348z"/></g><g><path class="st0" d="M180.578,165.32h-13.175c-1.657,0-3-1.343-3-3v-9.104c0-1.657,1.343-3,3-3h13.175c1.657,0,3,1.343,3,3v9.104    C183.578,163.978,182.235,165.32,180.578,165.32z M170.403,159.32h7.175v-3.104h-7.175V159.32z"/></g><g><path class="st0" d="M134.468,165.32h-13.175c-1.657,0-3-1.343-3-3v-9.104c0-1.657,1.343-3,3-3h13.175c1.657,0,3,1.343,3,3v9.104    C137.468,163.978,136.125,165.32,134.468,165.32z M124.293,159.32h7.175v-3.104h-7.175V159.32z"/></g><g><path class="st0" d="M111.412,165.32H98.237c-1.657,0-3-1.343-3-3v-9.104c0-1.657,1.343-3,3-3h13.175c1.657,0,3,1.343,3,3v9.104    C114.412,163.978,113.069,165.32,111.412,165.32z M101.237,159.32h7.175v-3.104h-7.175V159.32z"/></g><g><path class="st0" d="M88.356,165.32H75.182c-1.657,0-3-1.343-3-3v-9.104c0-1.657,1.343-3,3-3h13.175c1.657,0,3,1.343,3,3v9.104    C91.356,163.978,90.014,165.32,88.356,165.32z M78.182,159.32h7.175v-3.104h-7.175V159.32z"/></g><g><path class="st0" d="M157.522,172.945c-1.657,0-3-1.343-3-3V43.809c0-1.657,1.343-3,3-3s3,1.343,3,3v126.137    C160.522,171.603,159.18,172.945,157.522,172.945z"/></g><g><path class="st5" d="M152.299,162.334l18.355-49.796l0,0c5.173,1.907,7.821,7.646,5.914,12.819l-14.902,40.43L152.299,162.334z"/></g><g><path class="st0" d="M161.665,168.787c-0.345,0-0.695-0.06-1.037-0.187l-9.366-3.452c-0.747-0.274-1.354-0.835-1.687-1.558    c-0.334-0.723-0.366-1.548-0.091-2.294l18.354-49.797c0.274-0.747,0.835-1.354,1.558-1.688c0.723-0.332,1.546-0.366,2.295-0.09    c3.253,1.199,5.846,3.594,7.298,6.742c1.453,3.148,1.593,6.675,0.393,9.929l-14.902,40.43    C164.033,168.036,162.886,168.787,161.665,168.787z M156.151,160.557l3.736,1.377l13.865-37.615    c0.645-1.75,0.569-3.646-0.212-5.34c-0.339-0.735-0.794-1.395-1.343-1.957L156.151,160.557z"/></g><g><path class="st4" d="M162.746,162.334l-18.355-49.796l0,0c-5.173,1.907-7.821,7.646-5.914,12.819l14.902,40.43L162.746,162.334z"/></g><g><path class="st3" d="M152.299,162.334l-7.659,20.778c-1.672-1.655-3.702-2.998-6.05-3.863    c-8.793-3.241-18.583,1.276-21.825,10.069c-3.241,8.793,1.276,18.583,10.069,21.824c8.793,3.241,18.583-1.276,21.824-10.069    l13.006-35.287L152.299,162.334z M130.287,201.775c-3.628-1.337-5.492-5.378-4.155-9.006c1.337-3.628,5.378-5.492,9.006-4.155    c3.628,1.337,5.492,5.378,4.155,9.006C137.956,201.249,133.915,203.113,130.287,201.775z"/></g><g><path class="st0" d="M132.696,215.191C132.695,215.191,132.696,215.191,132.696,215.191c-2.354,0-4.676-0.415-6.899-1.235    c-10.345-3.813-15.659-15.332-11.846-25.677c2.884-7.823,10.431-13.081,18.779-13.081c2.354,0,4.674,0.416,6.896,1.234    c1.274,0.471,2.484,1.063,3.624,1.773l6.233-16.909c0.572-1.555,2.3-2.354,3.852-1.777l9.366,3.452    c1.555,0.572,2.351,2.297,1.777,3.852l-13.006,35.287C148.59,209.935,141.043,215.191,132.696,215.191z M132.73,181.198    c-5.847,0-11.131,3.68-13.15,9.157c-2.669,7.24,1.052,15.302,8.292,17.972c1.557,0.573,3.18,0.864,4.823,0.864    c5.847,0,11.13-3.68,13.149-9.156l11.968-32.472l-3.736-1.377l-6.621,17.962c-0.353,0.958-1.168,1.67-2.164,1.892    c-0.995,0.218-2.036-0.079-2.761-0.797c-1.437-1.422-3.111-2.492-4.979-3.181C135.996,181.489,134.374,181.198,132.73,181.198z     M132.705,205.209c-1.18,0-2.343-0.208-3.456-0.619c-5.18-1.908-7.842-7.677-5.933-12.857c1.445-3.919,5.225-6.551,9.404-6.551    c1.18,0,2.342,0.208,3.454,0.617c5.181,1.91,7.842,7.679,5.934,12.858C140.663,202.576,136.885,205.209,132.705,205.209z     M132.721,191.182c-1.679,0-3.195,1.055-3.774,2.626c-0.765,2.076,0.302,4.388,2.378,5.152c0.447,0.165,0.912,0.249,1.381,0.249    c1.678,0,3.194-1.056,3.773-2.627c0.765-2.075-0.302-4.388-2.379-5.153C133.654,191.265,133.189,191.182,132.721,191.182z"/></g><g><path class="st2" d="M153.38,165.786l13.006,35.287c3.241,8.793,13.031,13.31,21.824,10.069    c8.793-3.241,13.31-13.031,10.069-21.824c-3.241-8.793-13.031-13.31-21.824-10.069c-2.348,0.865-4.378,2.208-6.05,3.863    l-7.659-20.778L153.38,165.786z M175.753,197.62c-1.337-3.628,0.527-7.668,4.155-9.006c3.628-1.337,7.669,0.527,9.006,4.155    c1.337,3.628-0.527,7.668-4.155,9.006C181.13,203.113,177.09,201.249,175.753,197.62z"/></g><g><path class="st0" d="M182.352,215.191c-0.001,0-0.001,0-0.002,0c-8.349-0.001-15.895-5.258-18.778-13.08l-13.006-35.288    c-0.573-1.555,0.223-3.279,1.777-3.852l9.366-3.452c1.552-0.576,3.279,0.223,3.852,1.776l6.233,16.91    c1.14-0.71,2.349-1.303,3.623-1.772c2.224-0.819,4.544-1.235,6.897-1.235c8.349,0,15.896,5.258,18.779,13.081    c1.845,5.005,1.628,10.435-0.611,15.289c-2.24,4.854-6.229,8.543-11.233,10.388C187.025,214.776,184.705,215.191,182.352,215.191z     M157.232,167.563l11.968,32.473c2.019,5.476,7.304,9.155,13.15,9.155h0.001c1.643,0,3.265-0.291,4.821-0.864    c3.501-1.291,6.293-3.873,7.861-7.272c1.567-3.399,1.721-7.199,0.431-10.699c-2.02-5.478-7.304-9.157-13.15-9.157    c-1.644,0-3.266,0.291-4.822,0.865c-1.867,0.688-3.541,1.759-4.976,3.179c-0.725,0.719-1.768,1.02-2.762,0.798    c-0.996-0.221-1.812-0.934-2.164-1.891l-6.622-17.963L157.232,167.563z M182.34,205.209c-4.18,0-7.958-2.633-9.402-6.552    c-1.909-5.179,0.751-10.947,5.932-12.857c1.113-0.41,2.275-0.618,3.455-0.618c4.181,0,7.96,2.632,9.404,6.551    c0.924,2.506,0.815,5.225-0.307,7.656c-1.121,2.431-3.12,4.278-5.627,5.202C184.683,205.001,183.52,205.209,182.34,205.209z     M182.324,191.182c-0.469,0-0.934,0.083-1.38,0.248c-2.075,0.765-3.143,3.077-2.377,5.152c0.579,1.571,2.095,2.627,3.772,2.627    c0.469,0,0.934-0.084,1.38-0.248c1.004-0.37,1.805-1.11,2.254-2.086c0.45-0.976,0.494-2.064,0.125-3.067    C185.52,192.236,184.003,191.182,182.324,191.182z"/></g><g><path class="st0" d="M153.38,168.787c-1.221,0-2.368-0.751-2.814-1.964l-14.902-40.431c-2.476-6.716,0.975-14.194,7.69-16.67    c0.747-0.276,1.571-0.242,2.295,0.09c0.723,0.334,1.283,0.94,1.558,1.688l18.354,49.797c0.275,0.746,0.243,1.571-0.091,2.294    c-0.333,0.723-0.939,1.283-1.687,1.558l-9.366,3.452C154.075,168.728,153.725,168.787,153.38,168.787z M142.849,117.026    c-1.818,1.868-2.517,4.687-1.556,7.292l13.864,37.615l3.736-1.377L142.849,117.026z"/></g><g><circle class="st6" cx="157.576" cy="159.131" r="11.505"/></g><g><path class="st0" d="M157.576,173.636c-7.998,0-14.505-6.507-14.505-14.505s6.507-14.505,14.505-14.505    s14.505,6.507,14.505,14.505S165.574,173.636,157.576,173.636z M157.576,150.626c-4.689,0-8.505,3.815-8.505,8.505    s3.815,8.505,8.505,8.505s8.505-3.815,8.505-8.505S162.266,150.626,157.576,150.626z"/></g><g><circle class="st0" cx="157.576" cy="159.131" r="4.226"/></g><g><ellipse class="st2" cx="89.893" cy="128.682" rx="8.826" ry="5.85" transform="matrix(0.9311 -0.3647 0.3647 0.9311 -40.7399 41.6485)"/></g><g><ellipse class="st2" cx="117.756" cy="123.908" rx="8.826" ry="5.85" transform="matrix(0.9311 -0.3647 0.3647 0.9311 -37.0798 51.4816)"/></g><g><path class="st0" d="M87.557,138.01c-4.14,0-7.463-1.922-8.675-5.015c-1.81-4.622,1.609-10.136,7.784-12.554    c1.815-0.711,3.74-1.087,5.564-1.087c4.138,0,7.462,1.921,8.674,5.014c1.81,4.621-1.61,10.136-7.783,12.554    C91.304,137.634,89.38,138.01,87.557,138.01z M92.23,125.354c-1.083,0-2.25,0.232-3.376,0.674c-3.262,1.277-4.8,3.722-4.386,4.778    c0.277,0.708,1.547,1.203,3.088,1.203c1.082,0,2.249-0.233,3.376-0.674c3.261-1.278,4.799-3.723,4.385-4.779    C95.04,125.849,93.771,125.354,92.23,125.354z"/></g><g><path class="st0" d="M115.419,133.236c-4.139,0-7.462-1.922-8.674-5.015c-1.81-4.622,1.609-10.136,7.784-12.554    c1.815-0.711,3.74-1.087,5.563-1.087c4.14,0,7.463,1.921,8.675,5.015c1.81,4.619-1.609,10.134-7.783,12.553    C119.167,132.86,117.243,133.236,115.419,133.236z M120.093,120.581c-1.082,0-2.249,0.232-3.375,0.674    c-3.262,1.277-4.8,3.722-4.386,4.778c0.277,0.708,1.547,1.203,3.087,1.203c1.083,0,2.25-0.233,3.377-0.675    c3.26-1.277,4.798-3.722,4.385-4.777C122.903,121.075,121.634,120.581,120.093,120.581z"/></g><g><path class="st0" d="M98.385,129.358c-1.643,0-2.983-1.324-2.999-2.971l-0.274-28.325c-0.014-1.473,1.042-2.737,2.493-2.986    l27.862-4.773c0.865-0.145,1.754,0.09,2.43,0.654c0.675,0.563,1.068,1.395,1.077,2.273l0.274,28.532    c0.016,1.657-1.314,3.014-2.971,3.029c-0.01,0-0.021,0-0.03,0c-1.643,0-2.983-1.324-2.999-2.971l-0.24-25.01l-21.872,3.747    l0.25,25.771c0.016,1.657-1.314,3.013-2.971,3.029C98.405,129.358,98.395,129.358,98.385,129.358z"/></g></g></svg>