<?xml version="1.0" ?><!DOCTYPE svg  PUBLIC '-//W3C//DTD SVG 1.1//EN'  'http://www.w3.org/Graphics/SVG/1.1/DTD/svg11.dtd'><svg enable-background="new 0 0 48 48" id="Layer_1" version="1.1" viewBox="0 0 48 48" xml:space="preserve" xmlns="http://www.w3.org/2000/svg" xmlns:xlink="http://www.w3.org/1999/xlink"><g><g><path d="M47.2,19.1v26.7c0,1.2-1,2.1-2.1,2.1H2.9c-1.2,0-2.1-1-2.1-2.1V19.1L22.6,0.5c0.8-0.7,2-0.7,2.8,0    L47.2,19.1z" fill="#757575"/></g><g><g><path d="M45.8,14L28.9,40.3c-0.6,1-2,1.3-3,0.7l-13.8-8.8c-1-0.6-1.3-2-0.7-3L28.4,2.8c0.6-1,2-1.3,3-0.7L45.2,11     C46.2,11.6,46.5,12.9,45.8,14z" fill="#4A8646"/><path d="M41.6,16.4l-12.2,19c-2-1.3-4.6-0.7-5.9,1.3L17,32.6c1.3-2,0.7-4.7-1.3-5.9l12.2-19     c2,1.3,4.6,0.7,5.9-1.3l6.4,4.1C39,12.5,39.6,15.1,41.6,16.4z" fill="#FFFFFF"/><circle cx="34.1" cy="13.1" fill="#4A8646" r="2.5"/><circle cx="23.2" cy="30" fill="#4A8646" r="2.5"/><ellipse cx="28.7" cy="21.5" fill="#4A8646" rx="4.7" ry="6.2" transform="matrix(0.5398 -0.8418 0.8418 0.5398 -4.9397 34.0369)"/><path d="M31.8,23.8l-0.6-0.4c-0.5,0.7-1.2,1.1-2.1,1.4l-0.3-1c0.7-0.2,1.2-0.5,1.6-0.9l-1.5-1     c-0.5,0.5-1,0.8-1.4,0.9c-0.4,0.1-0.8,0-1.3-0.2c-0.5-0.3-0.7-0.7-0.8-1.2c-0.1-0.5,0-1,0.3-1.5l-0.4-0.3l0.3-0.5l0.4,0.3     c0.4-0.6,1-1,1.6-1.3l0.4,1c-0.5,0.2-0.9,0.5-1.2,0.8l1.5,1l0,0c0.5-0.5,1-0.8,1.4-1c0.4-0.1,0.9,0,1.3,0.2     c0.5,0.3,0.7,0.7,0.8,1.2c0.1,0.5,0,1-0.4,1.6l0.6,0.4L31.8,23.8z M26.4,21.1c0,0.2,0.1,0.4,0.3,0.5c0.2,0.1,0.3,0.2,0.5,0.1     c0.2,0,0.4-0.2,0.7-0.4l-1.4-0.9C26.4,20.7,26.3,20.9,26.4,21.1z M30.9,21.7c0-0.2-0.1-0.4-0.3-0.5C30.4,21,30.2,21,30,21     c-0.2,0-0.4,0.2-0.7,0.5l1.4,0.9C30.9,22.1,30.9,21.9,30.9,21.7z" fill="#FFFFFF"/></g><g><path d="M38,10l-9.4,29.8c-0.4,1.1-1.6,1.8-2.7,1.4l-15.6-4.9c-1.1-0.4-1.8-1.6-1.4-2.7l9.4-29.8     c0.4-1.1,1.6-1.8,2.7-1.4l15.6,4.9C37.7,7.6,38.3,8.9,38,10z" fill="#5CA658"/><path d="M34.5,13.5L27.8,35c-2.3-0.7-4.7,0.5-5.4,2.8l-7.3-2.3c0.7-2.3-0.6-4.7-2.8-5.4L19,8.6     c2.3,0.7,4.7-0.5,5.4-2.8l7.3,2.3C31,10.4,32.3,12.8,34.5,13.5z" fill="#FFFFFF"/><circle cx="26.4" cy="12.3" fill="#5CA658" r="2.5"/><circle cx="20.4" cy="31.4" fill="#5CA658" r="2.5"/><ellipse cx="23.4" cy="21.8" fill="#5CA658" rx="4.7" ry="6.2" transform="matrix(0.2991 -0.9542 0.9542 0.2991 -4.4278 37.6524)"/><path d="M27.1,23.2L26.4,23c-0.3,0.8-0.9,1.4-1.7,1.9L24.2,24c0.6-0.4,1-0.8,1.3-1.3l-1.7-0.5     c-0.4,0.6-0.7,1.1-1.1,1.3c-0.4,0.2-0.8,0.3-1.3,0.1c-0.5-0.2-0.9-0.5-1.1-0.9c-0.2-0.5-0.2-1-0.1-1.6l-0.4-0.1l0.2-0.6l0.5,0.1     c0.3-0.6,0.7-1.2,1.3-1.7l0.6,0.8c-0.4,0.3-0.7,0.7-0.9,1.1l1.7,0.5l0,0c0.4-0.6,0.8-1.1,1.1-1.3c0.4-0.2,0.8-0.3,1.3-0.1     c0.5,0.2,0.9,0.5,1.1,1c0.2,0.5,0.2,1,0.1,1.6l0.6,0.2L27.1,23.2z M21.1,22c0.1,0.2,0.2,0.3,0.4,0.4c0.2,0.1,0.4,0.1,0.5,0     c0.2-0.1,0.3-0.3,0.5-0.6L21,21.3C21,21.6,21,21.8,21.1,22z M25.6,21.4c-0.1-0.2-0.2-0.3-0.4-0.4c-0.2-0.1-0.4-0.1-0.6,0     s-0.4,0.3-0.6,0.6l1.6,0.5C25.7,21.8,25.7,21.6,25.6,21.4z" fill="#FFFFFF"/></g></g><path d="M47.2,19.1v26.7c0,1.2-1,2.1-2.1,2.1H2.9c-1.2,0-2.1-1-2.1-2.1V19.1C20.1,35.6,15.2,31.5,24,39   C32.6,31.6,27.9,35.6,47.2,19.1z" fill="#E5BE50"/><path d="M46.6,47.4c-0.4,0.4-0.9,0.6-1.5,0.6H2.9c-0.6,0-1.1-0.2-1.5-0.6l16.2-13.8l4.9-4.2c0.8-0.7,2-0.7,2.8,0   l4.9,4.2L46.6,47.4z" fill="#FFD45A"/></g></svg>